<svg width="101" height="101" viewBox="0 0 101 101" fill="none" xmlns="http://www.w3.org/2000/svg">
<path d="M50.0124 12.8937C40.1679 12.8937 30.7265 16.8044 23.7654 23.7655C16.8043 30.7267 12.8936 40.168 12.8936 50.0125C12.8936 59.857 16.8043 69.2983 23.7654 76.2595C30.7265 83.2206 40.1679 87.1313 50.0124 87.1313C59.8569 87.1313 69.2982 83.2206 76.2594 76.2595C83.2205 69.2983 87.1312 59.857 87.1312 50.0125C87.1312 40.168 83.2205 30.7267 76.2594 23.7655C69.2982 16.8044 59.8569 12.8937 50.0124 12.8937Z" stroke="#FF0008" stroke-width="5.7" stroke-linecap="round" stroke-linejoin="round"/>
<path d="M50.0125 27.7413V48.0808C50.0125 49.2647 50.6814 50.3471 51.7403 50.8766L64.86 57.4364" stroke="#FF0008" stroke-width="5.7" stroke-linecap="round" stroke-linejoin="round"/>
</svg>
